<svg xmlns="http://www.w3.org/2000/svg" viewBox="0 0 1024 1024" width="1024" height="1024">
<g fill="#000000" fill-rule="evenodd" stroke="none">
<path d="M 653 677 L 654 678 L 661 678 L 662 679 L 662 701 L 664 701 L 664 679 L 665 678 L 673 678 L 673 677 Z"/>
<path d="M 620 677 L 620 701 L 621 701 L 621 682 L 622 681 L 627 686 L 627 687 L 635 696 L 635 697 L 638 700 L 638 701 L 640 702 L 640 677 L 639 677 L 639 697 L 638 698 L 635 695 L 635 694 L 632 691 L 632 690 L 628 686 L 628 685 L 625 682 L 625 681 L 621 677 Z"/>
<path d="M 551 677 L 551 701 L 552 701 L 552 693 L 554 691 L 556 691 L 557 692 L 561 692 L 567 699 L 567 700 L 569 702 L 570 702 L 568 698 L 564 694 L 563 692 L 567 690 L 569 688 L 570 686 L 570 682 L 569 680 L 565 677 Z"/>
<path d="M 552 679 L 553 678 L 564 678 L 568 681 L 569 685 L 565 690 L 553 690 L 552 689 Z"/>
<path d="M 515 677 L 515 694 L 516 695 L 516 697 L 519 700 L 523 702 L 527 702 L 528 701 L 532 700 L 535 696 L 535 677 L 534 677 L 534 694 L 533 696 L 529 700 L 527 700 L 526 701 L 524 700 L 521 700 L 517 696 L 517 694 L 516 693 L 516 677 Z"/>
<path d="M 450 677 L 450 678 L 458 678 L 459 679 L 459 701 L 460 701 L 460 679 L 461 678 L 469 678 L 469 677 Z"/>
<path d="M 390 677 L 390 701 L 408 701 L 407 700 L 392 700 L 391 699 L 391 691 L 393 689 L 406 689 L 406 688 L 392 688 L 391 687 L 391 679 L 392 678 L 407 678 L 408 677 Z"/>
<path d="M 594 676 L 592 678 L 590 682 L 590 684 L 581 701 L 582 702 L 586 695 L 601 695 L 606 702 L 606 700 L 601 691 L 601 689 Z"/>
<path d="M 594 679 L 596 681 L 596 683 L 601 692 L 599 694 L 588 694 L 587 692 L 591 685 L 592 681 Z"/>
<path d="M 490 676 L 483 689 L 483 691 L 478 701 L 480 700 L 481 697 L 483 695 L 498 695 L 501 701 L 503 701 L 497 690 L 497 688 L 492 678 Z"/>
<path d="M 490 679 L 492 681 L 496 689 L 496 691 L 497 692 L 496 694 L 484 694 L 483 693 Z"/>
<path d="M 427 676 L 422 679 L 421 681 L 421 684 L 423 687 L 427 689 L 433 690 L 435 692 L 436 692 L 437 693 L 437 697 L 434 700 L 431 700 L 430 701 L 428 700 L 425 700 L 421 697 L 421 699 L 425 701 L 427 701 L 428 702 L 432 702 L 433 701 L 435 701 L 438 698 L 439 694 L 436 690 L 426 687 L 423 684 L 423 680 L 428 677 L 432 677 L 437 680 L 438 679 L 433 676 Z"/>
<path d="M 357 676 L 356 677 L 356 684 L 357 685 L 357 702 L 358 701 L 358 693 L 359 692 L 367 692 L 371 697 L 371 698 L 375 702 L 376 702 L 376 701 L 369 693 L 370 691 L 373 690 L 375 688 L 375 685 L 376 684 L 375 683 L 374 679 L 371 677 L 368 677 L 367 676 L 365 676 L 364 677 L 358 677 Z"/>
<path d="M 358 679 L 359 678 L 370 678 L 374 682 L 374 687 L 370 690 L 367 690 L 366 691 L 365 690 L 359 691 L 358 690 Z"/>
<path d="M 703 592 L 698 601 L 698 603 L 692 614 L 692 616 L 685 629 L 685 631 L 679 642 L 679 644 L 672 658 L 677 658 L 680 653 L 680 651 L 686 640 L 723 640 L 724 641 L 726 641 L 731 651 L 731 653 L 734 658 L 739 658 L 733 646 L 733 644 L 726 631 L 726 629 L 719 616 L 719 614 L 713 603 L 713 601 L 709 593 L 708 592 Z"/>
<path d="M 705 598 L 707 599 L 708 603 L 718 623 L 718 625 L 723 634 L 722 636 L 689 636 L 688 635 L 691 629 L 691 627 L 697 616 L 697 614 Z"/>
<path d="M 605 592 L 605 658 L 610 658 L 610 633 L 611 632 L 625 632 L 626 633 L 632 633 L 652 658 L 658 658 L 639 634 L 639 632 L 640 631 L 643 631 L 644 630 L 648 629 L 654 623 L 656 619 L 656 616 L 657 615 L 657 609 L 656 608 L 656 605 L 653 601 L 653 600 L 649 596 L 643 593 L 640 593 L 639 592 Z"/>
<path d="M 610 597 L 611 596 L 637 596 L 638 597 L 641 597 L 645 599 L 650 604 L 651 608 L 652 609 L 652 616 L 651 617 L 651 619 L 647 624 L 646 624 L 642 627 L 639 627 L 638 628 L 611 628 L 610 627 Z"/>
<path d="M 446 592 L 446 658 L 450 658 L 451 656 L 451 635 L 450 634 L 451 633 L 473 633 L 477 638 L 477 639 L 480 642 L 480 643 L 483 646 L 483 647 L 491 656 L 491 657 L 492 658 L 498 658 L 498 657 L 494 653 L 494 652 L 483 639 L 483 638 L 479 633 L 481 631 L 484 631 L 485 630 L 489 629 L 495 623 L 496 621 L 496 619 L 497 618 L 497 607 L 496 606 L 496 604 L 494 600 L 488 595 L 484 594 L 483 593 L 481 593 L 480 592 Z"/>
<path d="M 451 597 L 452 596 L 478 596 L 479 597 L 482 597 L 484 598 L 490 603 L 492 607 L 492 609 L 493 610 L 493 615 L 492 616 L 491 620 L 485 626 L 483 627 L 480 627 L 479 628 L 452 628 L 451 627 Z"/>
<path d="M 366 592 L 365 594 L 365 633 L 366 634 L 366 639 L 367 640 L 368 645 L 370 647 L 372 651 L 377 655 L 383 658 L 387 658 L 388 659 L 399 659 L 400 658 L 406 657 L 408 655 L 412 653 L 416 648 L 418 644 L 418 642 L 419 641 L 419 638 L 420 637 L 420 592 L 415 592 L 415 637 L 414 638 L 413 643 L 412 645 L 403 653 L 401 653 L 400 654 L 395 654 L 394 655 L 392 655 L 391 654 L 386 654 L 385 653 L 381 652 L 374 645 L 371 639 L 371 635 L 370 634 L 370 592 Z"/>
<path d="M 312 592 L 309 598 L 309 600 L 297 624 L 297 626 L 291 637 L 291 639 L 285 650 L 285 652 L 282 658 L 287 658 L 293 646 L 293 644 L 296 640 L 334 640 L 336 642 L 343 658 L 348 658 L 348 656 L 342 645 L 342 643 L 337 634 L 337 632 L 332 623 L 332 621 L 324 606 L 324 604 L 318 592 Z"/>
<path d="M 315 598 L 317 600 L 318 604 L 330 628 L 330 630 L 333 635 L 332 636 L 299 636 L 298 635 L 298 633 L 303 624 L 303 622 L 308 613 L 308 611 Z"/>
<path d="M 535 593 L 529 596 L 526 599 L 525 599 L 518 608 L 518 610 L 515 616 L 515 621 L 514 622 L 514 628 L 515 629 L 515 634 L 516 635 L 516 637 L 521 646 L 528 653 L 535 657 L 537 657 L 538 658 L 542 658 L 543 659 L 554 659 L 555 658 L 559 658 L 562 656 L 564 656 L 568 653 L 569 653 L 576 646 L 580 639 L 580 637 L 582 633 L 582 617 L 581 616 L 580 611 L 576 604 L 569 597 L 562 593 L 556 592 L 555 591 L 542 591 L 541 592 Z"/>
<path d="M 544 595 L 553 595 L 554 596 L 557 596 L 565 600 L 573 608 L 576 614 L 576 616 L 577 617 L 577 623 L 578 624 L 577 626 L 577 632 L 576 633 L 575 638 L 572 642 L 572 643 L 563 651 L 559 653 L 557 653 L 556 654 L 552 654 L 551 655 L 541 654 L 531 649 L 523 640 L 521 636 L 521 634 L 520 633 L 520 628 L 519 627 L 520 617 L 521 616 L 522 611 L 524 609 L 526 605 L 529 602 L 530 602 L 535 598 L 539 597 L 540 596 L 543 596 Z"/>
<path d="M 581 523 L 580 524 L 578 524 L 574 526 L 571 529 L 569 533 L 569 542 L 571 546 L 575 550 L 579 552 L 587 552 L 588 551 L 590 551 L 593 548 L 594 548 L 594 547 L 596 545 L 597 541 L 598 540 L 598 535 L 597 534 L 596 530 L 591 525 L 587 524 L 586 523 Z"/>
<path d="M 467 372 L 466 373 L 466 376 L 465 377 L 465 380 L 464 381 L 464 386 L 463 387 L 462 397 L 461 398 L 461 405 L 460 406 L 460 426 L 461 427 L 462 432 L 464 434 L 465 437 L 473 446 L 476 452 L 476 455 L 477 456 L 477 489 L 476 490 L 476 516 L 475 517 L 475 541 L 474 542 L 474 545 L 475 546 L 475 549 L 478 552 L 482 553 L 483 552 L 485 552 L 489 547 L 489 533 L 488 532 L 488 510 L 487 509 L 487 486 L 486 485 L 486 456 L 487 455 L 487 452 L 488 451 L 489 447 L 497 438 L 502 429 L 502 426 L 503 425 L 503 408 L 502 407 L 502 400 L 501 399 L 501 394 L 500 393 L 500 388 L 499 387 L 498 377 L 497 376 L 497 373 L 495 372 L 494 373 L 494 418 L 492 421 L 488 421 L 486 419 L 486 416 L 485 415 L 485 395 L 484 394 L 484 377 L 483 376 L 483 373 L 481 372 L 480 373 L 480 376 L 479 377 L 479 392 L 478 393 L 478 411 L 477 412 L 477 419 L 475 421 L 471 421 L 469 418 L 469 373 Z"/>
<path d="M 538 371 L 536 373 L 535 373 L 531 378 L 528 384 L 528 386 L 527 387 L 527 389 L 525 393 L 525 396 L 524 397 L 524 401 L 523 402 L 523 408 L 522 409 L 522 417 L 521 418 L 521 451 L 522 452 L 522 461 L 523 462 L 523 465 L 528 474 L 532 478 L 534 482 L 534 487 L 535 488 L 535 493 L 534 494 L 534 519 L 533 520 L 533 548 L 536 552 L 543 552 L 547 547 L 547 529 L 546 528 L 546 473 L 545 472 L 545 374 L 543 371 Z"/>
<path d="M 432 344 L 436 349 L 444 353 L 579 353 L 580 352 L 582 352 L 586 350 L 591 345 L 592 343 L 432 343 Z"/>
<path d="M 385 324 L 390 330 L 394 332 L 396 332 L 397 333 L 627 333 L 633 330 L 636 327 L 638 323 L 385 323 Z"/>
</g></svg>